<svg t="1777948536583" class="icon" viewBox="0 0 1024 1024" version="1.1" xmlns="http://www.w3.org/2000/svg" p-id="7125" width="200" height="200"><path d="M85.333333 213.333333a128 128 0 0 1 128-128h85.333334a128 128 0 0 1 128 128v256H341.333333V362.666667H170.666667V469.333333H85.333333V213.333333z m85.333334 64h170.666666V213.333333a42.666667 42.666667 0 0 0-42.666666-42.666666H213.333333a42.666667 42.666667 0 0 0-42.666666 42.666666v64z m341.333333-128h256a128 128 0 0 1 128 128V384h-85.333333V277.333333a42.666667 42.666667 0 0 0-42.666667-42.666666h-256v-85.333334z m256 341.333334V554.666667h170.666667v85.333333h-45.312a340.224 340.224 0 0 1-93.44 194.688A255.317333 255.317333 0 0 0 896 853.333333h42.666667v85.333334h-42.666667a339.754667 339.754667 0 0 1-170.666667-45.653334A339.754667 339.754667 0 0 1 554.666667 938.666667h-42.666667v-85.333334h42.666667c33.962667 0 66.389333-6.613333 96.042666-18.645333a341.888 341.888 0 0 1-63.146666-91.050667l-18.346667-38.528 77.098667-36.608 18.304 38.528A256.853333 256.853333 0 0 0 725.333333 788.138667 255.573333 255.573333 0 0 0 807.125333 640H512v-85.333333h170.666667v-64h85.333333zM256 554.666667v256a42.666667 42.666667 0 0 0 42.666667 42.666666h106.666666v85.333334H298.666667a128 128 0 0 1-128-128v-256h85.333333z" fill="currentColor" p-id="7126"></path></svg>
